<svg width="19" height="18" viewBox="0 0 19 18" fill="none" xmlns="http://www.w3.org/2000/svg">
<path d="M10.6326 2.63248L11.9526 5.27248C12.1326 5.63998 12.6126 5.99248 13.0176 6.05998L15.4101 6.45748C16.9401 6.71248 17.3001 7.82248 16.1976 8.91748L14.3376 10.7775C14.0226 11.0925 13.8501 11.7 13.9476 12.135L14.4801 14.4375C14.9001 16.26 13.9326 16.965 12.3201 16.0125L10.0776 14.685C9.67264 14.445 9.00514 14.445 8.59264 14.685L6.35014 16.0125C4.74514 16.965 3.77014 16.2525 4.19014 14.4375L4.72264 12.135C4.82014 11.7 4.64764 11.0925 4.33264 10.7775L2.47264 8.91748C1.37764 7.82248 1.73014 6.71248 3.26014 6.45748L5.65264 6.05998C6.05014 5.99248 6.53014 5.63998 6.71014 5.27248L8.03014 2.63248C8.75014 1.19998 9.92014 1.19998 10.6326 2.63248Z" fill="#FFCD1A"/>
</svg>
